<svg width="595" height="554" viewBox="0 0 595 554" fill="none" xmlns="http://www.w3.org/2000/svg">
<path d="M41.5093 371.608C41.5093 371.608 434.766 371.816 590.465 371.608C602.685 344.967 587.311 309.369 559.538 300C568.23 309.916 576.922 319.832 585.614 329.747C570.343 329.594 41.5093 329.747 41.5093 329.747V371.608Z" fill="white"/>
<path fill-rule="evenodd" clip-rule="evenodd" d="M249.662 66.1912C248.274 64.609 245.535 64.492 244.017 65.9502C248.919 56.2413 263.261 53.3308 266.342 42.9001C270.287 29.5476 276.105 16.7502 283.573 5C286.681 16.5523 292.618 27.3326 300.72 36.1347C302.827 36.1442 304.935 36.1537 307.043 36.1632C311.831 36.1847 316.662 36.2108 321.338 37.2403C329.752 39.0924 337.293 44.1098 345.817 45.3582C345.186 44.567 344.554 43.7757 343.922 42.9845C344.098 42.1679 345.281 41.7943 345.894 42.362C346.974 38.0672 350.452 34.6947 354.398 32.6843C358.343 30.6739 364.162 26.932 375.807 27.9163C361.678 43.7329 366.053 109.579 362.577 122.058C361.392 122.374 360.484 121.078 359.713 120.124C358.942 119.17 357.142 118.583 356.725 119.738C353.831 127.76 353.42 140.106 344.548 144.886C342.836 145.808 341.818 144.085 341.951 143.245C342.12 142.173 340.832 141.347 339.759 141.51C338.685 141.672 337.827 142.45 336.99 143.141C322.878 154.793 299.771 148.787 285.643 160.419C282.851 162.717 280.391 165.712 276.907 166.68C274.828 167.257 272.613 167.03 270.489 166.649C257.842 164.382 246.582 156.878 237.798 147.501C229.014 138.124 222.456 126.912 216.35 115.607C221.976 112.421 227.89 108.949 230.947 103.251C233.355 98.7623 234.836 92.3277 239.9 91.7791C238.294 96.9965 236.687 102.214 235.081 107.431C234.493 109.342 233.898 111.334 234.209 113.309C234.52 115.283 236.029 117.223 238.025 117.323C240.735 117.459 242.643 114.393 245.333 114.044C245.843 124.135 249.718 134.028 256.197 141.781C258.446 144.471 262.769 146.914 265.051 144.252C261.588 138.657 258.124 133.061 254.661 127.466C252.502 123.979 250.288 120.331 249.892 116.249C249.497 112.168 251.521 107.538 255.445 106.348C255.62 105.268 254.481 104.342 253.388 104.309C252.296 104.277 251.289 104.856 250.351 105.416C246.857 107.499 243.363 109.583 239.87 111.667C240.984 103.383 243.264 95.2561 246.62 87.6006C243.368 87.2926 240.043 87.7894 237.024 89.0346C239.349 82.3092 243.611 76.2661 249.167 71.8192C250.81 70.5038 251.05 67.7735 249.662 66.1912Z" fill="white"/>
<path fill-rule="evenodd" clip-rule="evenodd" d="M319.431 48.339C316.553 50.2441 314.282 53.0531 313.023 56.2668C312.631 57.2662 311.519 57.7483 310.769 58.5157C310.018 59.2831 309.894 60.9232 310.945 61.1376C311.405 61.2313 311.857 60.9779 312.26 60.7373C318.713 56.8841 326.56 53.773 333.6 56.4047C332.443 56.9959 331.858 58.5131 332.32 59.7281C330.883 59.78 329.543 60.4263 328.253 61.0597C327.116 61.6176 325.979 62.1755 324.842 62.7333C324.961 63.069 325.08 63.4046 325.199 63.7403C330.339 61.1231 336.618 60.851 341.965 63.0136C340.187 63.2836 338.377 63.3329 336.588 63.1602C333.979 64.4751 331.37 65.7899 328.761 67.1048C328.181 67.3973 327.569 67.7189 327.242 68.2808C326.916 68.8428 327.04 69.7141 327.647 69.9458C332.361 65.7883 339.029 63.95 345.207 65.1045C345.928 65.2393 346.422 64.2336 346.116 63.567C345.81 62.9004 345.076 62.5583 344.393 62.2896C340.969 60.9412 337.357 60.0689 333.694 59.7058C335.526 58.0073 337.648 56.6225 339.941 55.6294C340.318 54.3382 338.455 53.1006 337.411 53.949C329.479 52.394 320.98 53.937 314.1 58.1814C314.043 56.8318 315.044 55.697 315.98 54.7234C318.908 51.6802 321.835 48.637 324.763 45.5938C319.637 46.2432 314.612 47.6865 309.923 49.8564C308.862 50.3471 307.815 50.877 306.854 51.5421C303.236 54.0467 301.083 58.527 301.388 62.9166C303.579 58.2846 307.048 54.2649 311.31 51.4192C313.746 49.7927 316.508 48.5262 319.431 48.339V48.339Z" fill="#E7EAEE"/>
<path fill-rule="evenodd" clip-rule="evenodd" d="M505.768 267.27C513.191 273.933 512.543 285.722 509.863 295.33C506.416 307.691 500.587 319.383 492.791 329.574L585.614 330.507L559.538 300.76C587.311 310.129 602.685 345.727 590.465 372.368C434.766 372.575 279.066 372.257 123.369 371.412C151.767 390.605 179.297 413.889 192.493 445.522C205.689 477.156 200.225 518.746 172.172 538.439C161.722 545.774 149.175 549.533 136.631 551.908C123.697 554.358 108.035 554.461 100.052 543.994C95.3891 537.881 97.6179 528.289 99.8221 518.802C101.36 512.185 102.885 505.619 102.052 500.321C99.2245 482.357 87.1306 473.247 73.3312 462.852C70.4323 460.668 67.458 458.428 64.4786 456.036C39.0393 435.62 9.87762 409.806 2.45349 378.043C-4.32782 349.03 3.13544 320.25 22.5303 297.632C29.5134 289.488 38.0977 282.076 46.7253 274.627L46.7257 274.627C58.3195 264.616 69.9915 254.538 77.962 242.526C82.8292 235.191 84.5354 227.349 86.3259 219.121C86.9685 216.167 87.622 213.164 88.4364 210.116C98.8925 170.986 136.178 150.866 174.571 130.149L174.571 130.149C179.434 127.525 184.314 124.892 189.159 122.209C211.378 109.907 233.803 94.1613 240.937 69.5128C237.003 69.6662 235.544 63.7528 237.811 60.5334C239.497 58.1393 242.16 56.7921 244.817 55.4483L244.817 55.4482C245.733 54.985 246.648 54.5222 247.522 54.017C255.634 49.3271 260.285 39.7592 265.048 29.961C272.204 15.2404 279.612 0 299.391 0C300.137 4.99436 299.365 9.44377 298.643 13.6125C297.525 20.0551 296.524 25.8274 301.42 31.905C315.437 30.3505 329.928 33.4158 342.115 40.5132C349.161 27.1367 367.03 21.4227 381.515 25.7535C379.681 28.0623 378.593 29.2204 377.692 30.1804C375.787 32.2083 374.712 33.3523 369.186 42.5938C361.043 56.21 366.202 106.266 367.49 114.181C368.779 122.095 362.681 127.719 357.104 123.811C359.82 135.541 350.032 146.736 337.996 147.073C333.885 147.806 331.33 149.795 328.916 151.674C327.414 152.843 325.967 153.97 324.233 154.726C362.451 182.062 404.759 203.669 449.31 218.604L450.094 218.867C458.43 221.657 467.143 224.573 473.046 231.051C479.133 237.732 480.563 249.592 473.479 255.206C477.804 259.128 483.723 260.194 489.644 261.261C495.541 262.323 501.44 263.386 505.768 267.27ZM110.964 320.173C117.861 326.691 131.365 327.032 140.854 326.993L263.912 326.489C267.467 321.765 265.268 314.505 260.676 310.783C256.083 307.06 249.9 306.058 244.007 305.591C224.985 304.085 205.64 306.818 187.78 313.534C182.765 314.426 178.957 308.098 180.169 303.151C181.381 298.204 185.594 294.665 189.512 291.41C202.154 280.908 214.55 269.081 220.485 253.754C226.638 237.859 224.853 219.108 215.81 204.66C230.992 217.272 234.182 240.455 227.364 258.977C220.546 277.499 205.573 291.906 189.35 303.147C198.21 304.964 207.409 302.94 216.514 300.937C227.547 298.51 238.444 296.112 248.436 300.614L250.496 244.41L255.837 293.675C256.234 297.338 257.387 301.87 261.008 302.551C270.835 304.4 276.662 317.27 271.566 325.875C275.958 328.838 282.657 327.513 285.589 323.1C288.521 318.688 287.147 311.998 282.714 309.097C271.96 302.063 271.109 286.91 271.402 274.063L273.421 185.367C273.47 183.226 272.985 180.411 270.864 180.116C239.815 175.802 212.209 152.473 202.779 122.578C175.262 134.904 147.741 149.117 125.537 168.69C74.7252 213.483 88.6626 250.728 92.3085 260.471C92.9473 262.178 93.2702 263.041 92.8736 262.952C90.3401 262.386 89.1379 259.533 88.4364 257.034C86.7974 251.195 85.7301 245.195 85.2546 239.149C76.8693 254.728 63.5173 266.565 50.1386 278.425C37.9105 289.266 25.66 300.126 17.1587 313.882C4.04846 335.095 1.30414 362.397 9.93018 385.795C20.1202 413.435 43.5404 432.77 66.6398 451.84C72.1906 456.423 77.7228 460.99 83.0484 465.654C94.1954 475.415 105.41 487.509 105.77 502.321C105.866 506.29 105.157 510.202 104.447 514.12C103.946 516.89 103.443 519.662 103.224 522.46C102.696 529.215 104.363 536.9 110.083 540.532C112.495 542.063 115.364 542.694 118.192 543.103C147.512 547.337 183.427 527.497 191.791 499.078C199.998 471.191 185.592 436.787 166.664 414.724C154.905 401.019 139.69 391.224 124.425 381.397L124.424 381.396C115.117 375.405 105.791 369.401 97.2186 362.492C89.1849 356.017 81.251 349.038 76.1673 340.059C71.0836 331.08 69.2578 319.665 73.8243 310.412C77.5668 302.829 84.9427 297.564 92.1751 292.4C101.27 285.908 110.138 279.577 111.269 269.004C111.13 273.754 109.125 279.076 107.137 284.351C105.404 288.95 103.684 293.514 103.227 297.632C102.245 306.474 104.498 314.063 110.964 320.173ZM96.0009 302.042C83.6483 302.177 76.3933 317.815 79.8681 329.669C83.343 341.524 93.5488 349.962 103.227 357.639C108.082 361.491 113.443 365.531 119.641 365.577L586.956 369.074L589.004 332.822L498.876 332.736C487.218 332.725 474 333.391 466.406 342.237C463.645 345.454 458.728 341.951 455.359 339.378C447.378 333.282 436.541 332.985 426.499 332.944L96.7637 331.606C93.2278 331.592 88.47 330.404 88.5864 326.87L110.759 326.036C102.796 320.555 97.3009 311.621 96.0009 302.042ZM438.929 328.803C433.983 316.857 430.23 304.416 427.745 291.728C427.047 288.164 426.447 284.515 426.921 280.915C428.345 270.111 438.604 263 448.03 257.529C444.007 257.449 440.575 254.605 437.993 251.519C437.274 250.66 436.588 249.766 435.902 248.873C434.122 246.556 432.343 244.24 429.998 242.526C425.188 239.011 424.418 238.948 414.481 238.133L414.479 238.133L414.446 238.13C413.432 238.047 412.324 237.956 411.106 237.853C402.368 237.112 381.234 229.15 365.803 223.336L365.803 223.336L365.803 223.336C357.931 220.37 351.543 217.963 349.042 217.36C314.818 209.101 291.095 219.914 285.752 225.741C282.837 228.922 282.122 233.482 281.536 237.757C278.9 256.988 276.264 276.522 279.04 295.733C279.558 299.319 280.516 303.273 283.557 305.243C286.607 307.218 289.478 309.468 292.126 311.956C296.371 315.945 300.188 322.422 296.89 327.224L438.929 328.803ZM244.121 64.5238C245.639 63.0657 248.378 63.1826 249.766 64.7648C251.154 66.3471 250.914 69.0775 249.271 70.3929C243.715 74.8397 239.453 80.8829 237.128 87.6082C240.147 86.3631 243.472 85.8662 246.724 86.1742C243.368 93.8298 241.088 101.956 239.974 110.241L250.455 103.989C251.393 103.429 252.4 102.851 253.492 102.883C254.585 102.915 255.724 103.842 255.549 104.921C251.625 106.111 249.601 110.741 249.996 114.823C250.392 118.905 252.607 122.553 254.765 126.04L265.155 142.825C262.873 145.488 258.55 143.045 256.301 140.354C249.822 132.601 245.947 122.709 245.437 112.617C244.187 112.78 243.107 113.528 242.036 114.269C240.801 115.124 239.58 115.97 238.129 115.897C236.133 115.797 234.624 113.857 234.313 111.882C234.002 109.908 234.597 107.915 235.185 106.005L240.004 90.3528C236.076 90.7783 234.303 94.7457 232.582 98.5992C232.084 99.7134 231.591 100.818 231.051 101.825C227.994 107.522 222.08 110.995 216.454 114.181C222.56 125.486 229.118 136.698 237.902 146.075C246.686 155.452 257.946 162.956 270.593 165.222C272.717 165.603 274.932 165.831 277.011 165.253C279.616 164.53 281.649 162.673 283.675 160.821L283.676 160.821C284.36 160.196 285.043 159.572 285.747 158.992C292.807 153.18 302.109 151.772 311.41 150.364C320.722 148.954 330.034 147.544 337.094 141.715C337.161 141.66 337.228 141.604 337.295 141.548C338.069 140.903 338.875 140.233 339.863 140.083C340.936 139.92 342.224 140.747 342.055 141.819C341.922 142.659 342.94 144.382 344.652 143.459C351.254 139.902 353.171 132.156 354.912 125.12C355.511 122.7 356.089 120.364 356.83 118.311C357.246 117.157 359.046 117.743 359.817 118.698L359.864 118.756C359.91 118.814 359.957 118.873 360.005 118.932C360.735 119.849 361.59 120.923 362.681 120.631C363.983 115.844 363.529 110.433 363.09 105.198C362.912 103.067 362.735 100.965 362.681 98.9456C362.676 98.7629 362.62 98.2113 362.531 97.3463C361.523 87.4922 356.353 36.9714 375.807 27.9163C371.181 27.0046 363.717 27.8482 357.104 31.905C350.412 36.0093 345.604 43.534 345.921 43.9319C341.3 43.255 336.967 41.4703 332.628 39.6828C328.964 38.1734 325.295 36.6619 321.443 35.8139C316.766 34.7845 311.935 34.7584 307.147 34.7368L300.824 34.7083C294.012 27.3074 294.275 19.2001 294.581 9.79823L294.581 9.79626C294.639 8.01701 294.698 6.19139 294.711 4.31542C282.905 5.86608 270.391 28.1213 266.446 41.4737C264.799 47.0508 259.932 50.4779 255.011 53.9439C250.727 56.9603 246.402 60.006 244.121 64.5238ZM445.354 221.964C444.002 221.62 442.658 221.279 441.332 220.928C421.051 215.562 402.121 206.118 383.355 196.737C360.998 185.561 338.255 174.115 320.319 156.706C318.932 155.361 316.734 155.454 314.818 155.701C307.733 156.614 300.763 158.423 294.128 161.07C290.652 162.457 286.741 164.84 286.717 168.583C286.708 169.901 287.214 171.161 287.712 172.381L291.052 180.569C292.478 184.062 293.927 187.685 293.804 191.456C293.681 195.226 291.54 199.206 287.912 200.242C284.285 201.278 279.804 197.903 280.741 194.249C282.346 187.991 283.445 181.604 284.022 175.17C276.954 189.167 279.392 205.868 281.998 221.33C291.352 216.402 301.145 212.304 311.222 209.101C314.683 208.001 318.563 207.032 321.832 208.613C329.837 212.483 344.905 213.514 346.388 212.474C347.872 211.434 349.902 211.936 351.611 212.537C354.365 213.504 359.612 215.55 365.88 217.994C381.261 223.99 402.793 232.384 408.721 233.135C410.282 233.333 411.851 233.479 413.42 233.626C416.813 233.942 420.205 234.259 423.502 235.093C428.325 236.313 433.079 238.841 435.632 243.111C437.539 242.062 438.729 240.207 439.926 238.342L439.926 238.342C440.504 237.442 441.083 236.54 441.745 235.724C443.779 233.219 448.049 231.673 449.999 234.244C451.71 228.393 460.371 226.135 464.721 230.405C465.393 231.065 465.954 231.825 466.515 232.586C467.098 233.376 467.681 234.166 468.388 234.844C469.777 236.172 472 236.99 473.611 235.943C467.026 227.466 455.94 224.651 445.354 221.964ZM466.819 328.215C471.788 330.003 477.27 328.261 482.199 326.367C486.859 324.577 491.723 322.442 494.553 318.33C497.96 313.383 497.592 306.854 497.09 300.868L494.988 275.792C498.106 278.415 500.396 282.007 501.457 285.941C503.977 280.382 500.229 272.958 494.26 271.684C496.782 269.595 500.933 270.966 502.712 273.714C504.492 276.462 504.452 280.001 503.931 283.234C503.791 284.105 503.62 284.976 503.449 285.846L503.449 285.846L503.449 285.847L503.449 285.847L503.449 285.847C502.986 288.204 502.524 290.562 502.666 292.948C506.413 287.094 507.127 279.407 504.523 272.963C503.344 270.044 501.254 267.188 498.197 266.437C495.14 265.685 491.357 268.183 491.863 271.289C493.024 278.409 489.704 285.718 484.612 290.829C479.521 295.94 472.849 299.159 466.115 301.745C463.636 302.697 460.555 304.877 461.763 307.241C463.025 309.71 463.896 312.504 463.462 315.243C463.029 317.982 461.023 320.599 458.29 321.071C454.922 321.653 451.925 319.044 449.504 316.632L435.199 302.381C437.106 307.677 439.342 312.854 441.891 317.873C443.636 321.311 445.633 324.792 448.789 327.007C451.946 329.221 456.566 329.797 459.552 327.358C461.215 325.998 463.485 326.902 465.598 327.744L465.598 327.744L465.599 327.745C466.014 327.91 466.423 328.073 466.819 328.215ZM468.235 278.345L468.236 278.344L468.236 278.344L468.237 278.344L468.237 278.344C469.571 277.459 470.906 276.574 472.289 275.794C476.576 273.375 482.269 272.075 486.204 275.031C487.466 270.971 484.972 266.61 481.719 263.871C475.965 259.027 467.529 257.606 460.505 260.299C453.846 262.851 447.087 265.63 441.798 270.413C436.508 275.197 432.892 282.43 434.251 289.431C435.739 289.793 436.98 288.599 438.14 287.482C438.361 287.269 438.58 287.059 438.796 286.863C442.086 283.887 446.598 283.807 451.197 283.724H451.197C453.993 283.674 456.821 283.624 459.425 282.922C462.643 282.054 465.436 280.201 468.235 278.345ZM458.037 314.514C456.714 311.204 455.905 307.559 456.628 304.068C457.351 300.577 459.873 297.305 463.342 296.484C471.368 294.586 478.664 289.744 483.53 283.085C484.511 281.743 485.309 279.65 484.003 278.622C483.467 278.201 482.738 278.138 482.056 278.148C477.661 278.214 473.816 280.502 469.964 282.794C468.406 283.721 466.847 284.649 465.25 285.431C461.43 287.3 457.222 288.369 452.973 288.549C452.122 288.585 451.261 288.587 450.399 288.59C447.688 288.597 444.967 288.604 442.503 289.663C439.256 291.057 436.861 295.283 438.888 298.178C443.701 305.048 450.424 310.308 457.043 315.461L458.037 314.514ZM214.416 118.13C213.677 116.796 212.581 115.263 211.066 115.435C209.103 115.659 208.708 118.337 208.978 120.293C210.889 134.173 219.481 146.514 230.412 155.279C241.342 164.045 254.493 169.594 267.796 173.993C268.71 174.295 269.607 174.865 270.487 175.425C272.169 176.495 273.792 177.528 275.37 176.582C277.189 175.491 276.725 172.499 275.07 171.172C273.568 169.969 271.569 169.711 269.641 169.462C269.444 169.437 269.248 169.412 269.053 169.385C256.191 167.654 244.704 160.023 235.917 150.472C227.13 140.921 220.701 129.485 214.416 118.13ZM452.904 235.045C451.746 236.425 450.469 237.946 448.71 237.908C447.231 237.876 446.31 239.077 445.355 240.322C444.678 241.205 443.984 242.109 443.063 242.611C440.86 243.812 440.671 247.155 442.117 249.206C443.563 251.256 446.072 252.254 448.499 252.888C453.449 254.181 458.675 254.404 463.716 253.539C467.004 252.974 470.413 251.818 472.485 249.204C474.558 246.589 474.617 242.198 471.873 240.301C470.955 239.666 469.85 239.37 468.751 239.076C467.441 238.725 466.14 238.377 465.176 237.46C464.46 236.779 464.032 235.871 463.604 234.964C463.156 234.014 462.708 233.066 461.932 232.381C460.676 231.273 458.772 231.121 457.191 231.675C455.61 232.229 454.311 233.388 453.225 234.664L453.125 234.783L453.067 234.852L452.904 235.045ZM462.172 337.111C462.681 337.312 463.254 337.344 463.782 337.202C464.292 337.065 464.758 336.765 465.094 336.357C466.464 334.698 464.555 331.699 462.472 332.237C460.39 332.774 460.171 336.322 462.172 337.111ZM292.838 326.703C293.345 327.31 294.58 327.246 294.711 326.467C295.251 323.261 295.508 319.317 292.856 317.436L292.407 324.432C292.356 325.221 292.332 326.096 292.838 326.703ZM319.431 43.339C316.553 45.2441 314.283 48.0531 313.023 51.2668C312.767 51.9218 312.201 52.3546 311.63 52.7911C311.329 53.0207 311.028 53.2513 310.769 53.5157C310.018 54.2831 309.894 55.9233 310.946 56.1376C311.406 56.2313 311.857 55.978 312.26 55.7373C318.713 51.8841 326.561 48.773 333.601 51.4048C332.443 51.996 331.859 53.5131 332.32 54.7281C330.884 54.7801 329.544 55.4263 328.253 56.0597L324.843 57.7334L325.2 58.7403C330.34 56.1231 336.618 55.851 341.965 58.0136C340.188 58.2836 338.377 58.333 336.588 58.1602L328.761 62.1048C328.181 62.3973 327.569 62.7189 327.242 63.2809C326.916 63.8428 327.04 64.7142 327.647 64.9458C332.361 60.7883 339.029 58.95 345.208 60.1046C345.929 60.2393 346.422 59.2336 346.116 58.567C345.81 57.9004 345.076 57.5584 344.394 57.2896C340.969 55.9412 337.357 55.0689 333.694 54.7058C335.527 53.0074 337.649 51.6225 339.941 50.6294C340.319 49.3382 338.456 48.1006 337.412 48.949C329.479 47.394 320.981 48.937 314.101 53.1814C314.043 51.8318 315.044 50.697 315.981 49.7235L324.763 40.5938C319.637 41.2433 314.612 42.6865 309.923 44.8564C308.863 45.3471 307.815 45.877 306.854 46.5422C303.236 49.0467 301.083 53.527 301.388 57.9167C303.58 53.2846 307.049 49.2649 311.31 46.4193C313.746 44.7927 316.508 43.5263 319.431 43.339ZM301.371 85.9671C301.869 82.0935 301.892 77.9616 300.049 74.518C299.498 73.4882 298.733 72.4987 297.648 72.067C295.988 71.4065 294.076 72.2495 292.767 73.4655C289.518 76.4823 288.827 81.3689 289.105 85.7937C289.226 87.7164 289.508 89.683 290.451 91.3631C291.393 93.0433 293.117 94.395 295.044 94.4234C296.978 94.4519 298.743 93.1442 299.749 91.4922C300.755 89.8403 301.125 87.8855 301.371 85.9671ZM347.622 100.377C351.276 94.7854 351.029 86.9195 347.033 81.5672C346.555 80.9276 346.012 80.3079 345.303 79.9422C343.921 79.2299 342.155 79.6594 340.957 80.6514C339.76 81.6434 339.04 83.0962 338.519 84.5612C336.975 88.9007 336.911 93.7518 338.34 98.1304C339.207 100.786 341.356 103.659 344.107 103.179C345.627 102.914 346.778 101.668 347.622 100.377ZM312.525 129.099C312.086 128.977 311.649 128.856 311.326 128.547C310.641 127.892 310.882 126.626 311.659 126.083C312.437 125.541 313.528 125.635 314.357 126.094C315.196 126.56 315.863 127.48 315.721 128.429C315.579 129.378 314.365 130.087 313.585 129.529C313.275 129.308 312.899 129.203 312.525 129.099ZM302.659 113.681C296.593 112.337 293.202 112.507 287.998 113.834L286.901 114.12C281.708 115.476 278.464 115.482 271.873 113.345C271.085 113.09 270.239 113.521 269.984 114.309C269.728 115.098 281.755 118.515 287.253 117.126L288.267 116.863C293.329 115.533 296.274 115.339 302.01 116.61C302.819 116.789 303.62 116.279 303.799 115.47C303.978 114.661 303.468 113.861 302.659 113.681ZM255.012 99.194C255.378 98.4507 256.277 98.1448 257.021 98.5107C267.696 103.765 273.61 104.45 283.345 103.207L285.801 102.903C286.081 102.871 286.327 102.845 286.586 102.82L287.463 102.742C293.259 102.286 297.854 103.27 303.75 106.791C304.461 107.216 304.693 108.137 304.269 108.848C303.844 109.559 302.923 109.792 302.212 109.367C296.726 106.09 292.676 105.278 287.262 105.77C286.903 105.802 286.604 105.832 286.257 105.87L282.657 106.313C272.986 107.436 254.646 99.9373 255.012 99.194ZM329.071 113.276C328.244 113.217 327.527 113.839 327.468 114.666C327.409 115.492 328.031 116.209 328.858 116.268C332.277 116.512 334.632 117.675 338.168 120.524L339.447 121.58L339.867 121.931C340.091 122.12 340.283 122.28 340.355 122.34C343.472 124.938 345.547 126.354 348.301 127.484C349.067 127.798 354.361 128.875 350.258 126.665C346.155 124.455 340.809 118.809 340.809 118.809L340.026 118.168C336.059 114.975 333.221 113.571 329.071 113.276ZM326.82 120.452C327.145 119.69 328.026 119.336 328.788 119.661C332.553 121.268 334.673 123.323 338.236 127.985L339.336 129.416C340.056 130.338 340.661 131.269 341.247 132.172C342.54 134.163 343.746 136.021 345.923 137.36C349.088 139.306 344.566 138.286 343.86 137.852C341.05 136.124 339.228 134.217 336.384 130.503L335.559 129.425C332.472 125.423 330.67 123.726 327.61 122.42C326.848 122.095 326.494 121.214 326.82 120.452Z" fill="#00160A"/>
<path fill-rule="evenodd" clip-rule="evenodd" d="M321.564 115.687C322.791 114.581 324.574 114.243 325.773 113.106C326.909 112.028 327.344 110.27 326.841 108.787C326.338 107.304 324.925 106.173 323.367 106.008C318.9 105.534 314.433 105.061 309.966 104.587C308.905 104.475 307.733 104.39 306.874 105.022C305.563 105.987 305.77 108.095 306.718 109.418C307.666 110.742 309.127 111.595 310.269 112.755C311.741 114.25 312.661 116.277 312.819 118.369C312.936 119.923 312.766 121.775 313.998 122.729C315.543 123.928 317.829 122.511 318.775 120.8C319.722 119.088 320.111 116.997 321.564 115.687H321.564Z" fill="#FFB61D"/>
<path fill-rule="evenodd" clip-rule="evenodd" d="M168.344 371.667C363.603 371.742 504.31 371.723 590.465 371.608C602.686 344.967 303.038 356.186 189.412 356.186C75.7861 356.186 128.354 371.651 168.344 371.667Z" fill="#E7EAEE"/>
<path fill-rule="evenodd" clip-rule="evenodd" d="M140.42 327.415C130.931 327.454 117.427 327.113 110.53 320.596C104.064 314.486 101.811 306.896 102.793 298.054C103.775 289.213 110.576 278.318 110.835 269.426C108.804 288.408 81.8393 293.716 73.3907 310.834C68.8241 320.087 70.6499 331.502 75.7337 340.481C80.8174 349.46 88.7513 356.439 96.785 362.914C119.418 381.156 147.302 393.084 166.23 415.147C185.158 437.209 199.564 471.614 191.357 499.5C182.993 527.919 147.078 547.759 117.758 543.525C114.93 543.117 112.061 542.486 109.649 540.954C103.929 537.322 102.262 529.637 102.791 522.882C103.319 516.127 105.501 509.517 105.336 502.743C104.976 487.931 93.7618 475.837 82.6148 466.076C55.1264 442.005 22.1352 420.5 9.49658 386.217C0.870528 362.819 3.61482 335.517 16.725 314.304C34.5276 285.498 68.7714 269.389 84.821 239.571C85.2965 245.617 86.3638 251.617 88.0028 257.456C88.7043 259.955 89.9064 262.808 92.44 263.375C95.1001 263.969 65.3892 221.753 125.104 169.112C147.308 149.539 174.829 135.326 202.346 123C211.776 152.895 239.381 176.224 270.43 180.538C272.552 180.833 273.036 183.648 272.988 185.789C272.315 215.354 271.641 244.92 270.968 274.485C270.676 287.332 271.527 302.486 282.28 309.52C286.714 312.42 288.087 319.11 285.156 323.522C282.224 327.935 275.524 329.261 271.133 326.297C276.228 317.693 270.402 304.823 260.574 302.973C256.954 302.292 255.801 297.76 255.404 294.098C253.623 277.676 251.843 261.254 250.063 244.832C249.376 263.567 248.689 282.302 248.002 301.036C229.764 292.819 208.513 307.587 188.916 303.569C205.14 292.329 220.112 277.921 226.93 259.399C233.748 240.877 230.558 217.694 215.377 205.082C224.42 219.53 226.205 238.281 220.051 254.176C214.117 269.503 201.72 281.33 189.078 291.832C185.16 295.087 180.947 298.626 179.735 303.573C178.523 308.521 182.332 314.848 187.347 313.957C205.206 307.241 224.552 304.508 243.573 306.014C249.467 306.48 255.65 307.482 260.242 311.205C264.835 314.928 267.033 322.188 263.479 326.912C222.459 327.079 181.44 327.247 140.42 327.415Z" fill="white"/>
<path fill-rule="evenodd" clip-rule="evenodd" d="M118.192 543.103C115.363 542.694 112.495 542.063 110.082 540.532C104.362 536.9 102.695 529.215 103.224 522.46C103.752 515.704 105.934 509.095 105.769 502.321C105.409 487.509 94.1949 475.415 83.0479 465.654C55.5595 441.583 22.5683 420.077 9.92966 385.795C4.86928 372.069 68.4099 414.043 103.224 463.461C127.754 498.282 130.311 544.853 118.192 543.103Z" fill="#E7EAEE"/>
<path fill-rule="evenodd" clip-rule="evenodd" d="M94.8175 201.748C99.1246 191.376 111.132 181.389 125.538 168.69C147.741 149.116 175.262 134.904 202.779 122.578C175.797 142.233 142.903 158.641 119.496 183.31C108.088 195.334 100.37 219.565 93.9204 227.352C88.9828 233.313 82.5337 231.328 94.8175 201.748Z" fill="#E7EAEE"/>
<path fill-rule="evenodd" clip-rule="evenodd" d="M284.951 197.68C283.972 195.543 283.284 185.683 288.439 185.683C291.654 189.333 291.324 196.338 284.951 197.68Z" fill="#FFB61D"/>
<path fill-rule="evenodd" clip-rule="evenodd" d="M435.631 243.111C433.079 238.841 428.324 236.313 423.502 235.093C418.679 233.873 413.656 233.76 408.72 233.135C406.795 232.891 398.888 231.643 388.623 228.042C373.783 222.835 353.41 214.522 334.001 212.407C308.664 209.646 286.072 219.184 281.997 221.33C279.391 205.868 288.205 207.725 292.936 207.236C397.543 196.431 438.458 241.556 435.631 243.111Z" fill="#E7EAEE"/>
<path fill-rule="evenodd" clip-rule="evenodd" d="M441.332 220.928C453.035 224.025 466.185 226.383 473.611 235.943C472 236.99 469.777 236.172 468.388 234.843C467 233.515 466.092 231.751 464.721 230.405C460.371 226.134 451.71 228.393 449.999 234.244C448.049 231.673 443.779 233.219 441.745 235.724C439.711 238.229 438.459 241.556 435.632 243.111C433.079 238.841 428.325 236.313 423.502 235.093C418.679 233.873 413.656 233.76 408.721 233.135C400.377 232.078 392.224 229.529 384.764 225.645C385.218 226.576 354.309 213.173 326.025 211.23C305.371 209.811 285.946 219.25 281.998 221.33C279.392 205.868 276.954 189.167 284.022 175.17C283.445 181.604 282.346 187.991 280.741 194.249C279.804 197.903 284.285 201.278 287.912 200.242C291.54 199.206 293.681 195.226 293.804 191.456C293.927 187.685 292.478 184.062 291.052 180.569C289.939 177.84 288.825 175.11 287.712 172.381C287.214 171.161 286.708 169.901 286.717 168.583C286.741 164.84 290.652 162.457 294.128 161.07C300.763 158.423 307.733 156.614 314.818 155.701C316.734 155.454 318.932 155.361 320.319 156.706C338.255 174.115 360.998 185.561 383.355 196.737C402.121 206.118 421.051 215.562 441.332 220.928Z" fill="white"/>
</svg>
